<?xml version="1.0" encoding="UTF-8" standalone="no"?>
<!DOCTYPE svg PUBLIC "-//W3C//DTD SVG 1.1//EN"
 "http://www.w3.org/Graphics/SVG/1.1/DTD/svg11.dtd">
<!-- Generated by graphviz version 2.47.0 (20210316.0004)
 -->
<!-- Title: dependencies Pages: 1 -->
<svg width="1011pt" height="211pt"
 viewBox="0.00 0.00 1011.00 211.00" xmlns="http://www.w3.org/2000/svg" xmlns:xlink="http://www.w3.org/1999/xlink">
<g id="graph0" class="graph" transform="scale(1 1) rotate(0) translate(4 207)">
<title>dependencies</title>
<polygon fill="white" stroke="transparent" points="-4,4 -4,-207 1007,-207 1007,4 -4,4"/>
<text text-anchor="start" x="480.51" y="-42.4" font-family="Times-12" font-weight="bold" font-size="14.00">Legend</text>
<polygon fill="#ffffb3" stroke="transparent" points="267.5,-10 267.5,-30 287.5,-30 287.5,-10 267.5,-10"/>
<text text-anchor="start" x="291.13" y="-15.4" font-family="Times-12" font-size="14.00"> &#160;Declarations</text>
<polygon fill="#8dd3c7" stroke="transparent" points="380.5,-10 380.5,-30 400.5,-30 400.5,-10 380.5,-10"/>
<text text-anchor="start" x="404.23" y="-15.4" font-family="Times-12" font-size="14.00"> &#160;Module</text>
<polygon fill="#80b1d3" stroke="transparent" points="466.5,-10 466.5,-30 486.5,-30 486.5,-10 466.5,-10"/>
<text text-anchor="start" x="490.28" y="-15.4" font-family="Times-12" font-size="14.00"> &#160;Bootstrap</text>
<polygon fill="#fdb462" stroke="transparent" points="563.5,-10 563.5,-30 583.5,-30 583.5,-10 563.5,-10"/>
<text text-anchor="start" x="587.17" y="-15.4" font-family="Times-12" font-size="14.00"> &#160;Providers</text>
<polygon fill="#fb8072" stroke="transparent" points="659.5,-10 659.5,-30 679.5,-30 679.5,-10 659.5,-10"/>
<text text-anchor="start" x="683.23" y="-15.4" font-family="Times-12" font-size="14.00"> &#160;Exports</text>
<g id="clust1" class="cluster">
<title>cluster_FormlyConfigModule</title>
<polygon fill="none" stroke="black" stroke-dasharray="1,5" points="8,-70 8,-195 995,-195 995,-70 8,-70"/>
</g>
<g id="clust6" class="cluster">
<title>cluster_FormlyConfigModule_imports</title>
<polygon fill="none" stroke="black" points="873,-78 873,-130 987,-130 987,-78 873,-78"/>
</g>
<g id="clust9" class="cluster">
<title>cluster_FormlyConfigModule_providers</title>
<polygon fill="none" stroke="black" points="681,-78 681,-130 865,-130 865,-78 681,-78"/>
</g>
<g id="clust2" class="cluster">
<title>cluster_FormlyConfigModule_declarations</title>
<polygon fill="none" stroke="black" points="16,-78 16,-130 673,-130 673,-78 16,-78"/>
</g>
<!-- FormlyFieldComboboxComponent -->
<g id="node1" class="node">
<title>FormlyFieldComboboxComponent</title>
<polygon fill="#ffffb3" stroke="black" points="664.56,-122 451.44,-122 451.44,-86 664.56,-86 664.56,-122"/>
<text text-anchor="middle" x="558" y="-99.8" font-family="Times,serif" font-size="14.00">FormlyFieldComboboxComponent</text>
</g>
<!-- FormlyConfigModule -->
<g id="node4" class="node">
<title>FormlyConfigModule</title>
<polygon fill="#8dd3c7" stroke="black" points="627.66,-187 624.66,-191 603.66,-191 600.66,-187 488.34,-187 488.34,-151 627.66,-151 627.66,-187"/>
<text text-anchor="middle" x="558" y="-164.8" font-family="Times,serif" font-size="14.00">FormlyConfigModule</text>
</g>
<!-- FormlyFieldComboboxComponent&#45;&gt;FormlyConfigModule -->
<g id="edge1" class="edge">
<title>FormlyFieldComboboxComponent&#45;&gt;FormlyConfigModule</title>
<path fill="none" stroke="black" d="M558,-122.11C558,-122.11 558,-140.99 558,-140.99"/>
<polygon fill="black" stroke="black" points="554.5,-140.99 558,-150.99 561.5,-140.99 554.5,-140.99"/>
</g>
<!-- FormlyWrapperCardComponent -->
<g id="node2" class="node">
<title>FormlyWrapperCardComponent</title>
<polygon fill="#ffffb3" stroke="black" points="433.23,-122 234.77,-122 234.77,-86 433.23,-86 433.23,-122"/>
<text text-anchor="middle" x="334" y="-99.8" font-family="Times,serif" font-size="14.00">FormlyWrapperCardComponent</text>
</g>
<!-- FormlyWrapperCardComponent&#45;&gt;FormlyConfigModule -->
<g id="edge2" class="edge">
<title>FormlyWrapperCardComponent&#45;&gt;FormlyConfigModule</title>
<path fill="none" stroke="black" d="M334,-122.02C334,-139.37 334,-163 334,-163 334,-163 478.05,-163 478.05,-163"/>
<polygon fill="black" stroke="black" points="478.05,-166.5 488.05,-163 478.05,-159.5 478.05,-166.5"/>
</g>
<!-- FormlyWrapperDivComponent -->
<g id="node3" class="node">
<title>FormlyWrapperDivComponent</title>
<polygon fill="#ffffb3" stroke="black" points="216.02,-122 23.98,-122 23.98,-86 216.02,-86 216.02,-122"/>
<text text-anchor="middle" x="120" y="-99.8" font-family="Times,serif" font-size="14.00">FormlyWrapperDivComponent</text>
</g>
<!-- FormlyWrapperDivComponent&#45;&gt;FormlyConfigModule -->
<g id="edge3" class="edge">
<title>FormlyWrapperDivComponent&#45;&gt;FormlyConfigModule</title>
<path fill="none" stroke="black" d="M120,-122.28C120,-143.32 120,-175 120,-175 120,-175 478.11,-175 478.11,-175"/>
<polygon fill="black" stroke="black" points="478.11,-178.5 488.11,-175 478.11,-171.5 478.11,-178.5"/>
</g>
<!-- SharedModule -->
<g id="node5" class="node">
<title>SharedModule</title>
<polygon fill="#8dd3c7" stroke="black" points="979.42,-122 976.42,-126 955.42,-126 952.42,-122 880.58,-122 880.58,-86 979.42,-86 979.42,-122"/>
<text text-anchor="middle" x="930" y="-99.8" font-family="Times,serif" font-size="14.00">SharedModule</text>
</g>
<!-- SharedModule&#45;&gt;FormlyConfigModule -->
<g id="edge4" class="edge">
<title>SharedModule&#45;&gt;FormlyConfigModule</title>
<path fill="none" stroke="black" d="M930,-122.28C930,-143.32 930,-175 930,-175 930,-175 637.97,-175 637.97,-175"/>
<polygon fill="black" stroke="black" points="637.97,-171.5 627.97,-175 637.97,-178.5 637.97,-171.5"/>
</g>
<!-- FormlyValidations -->
<g id="node6" class="node">
<title>FormlyValidations</title>
<ellipse fill="#fdb462" stroke="black" cx="773" cy="-104" rx="83.99" ry="18"/>
<text text-anchor="middle" x="773" y="-99.8" font-family="Times,serif" font-size="14.00">FormlyValidations</text>
</g>
<!-- FormlyValidations&#45;&gt;FormlyConfigModule -->
<g id="edge5" class="edge">
<title>FormlyValidations&#45;&gt;FormlyConfigModule</title>
<path fill="none" stroke="black" d="M773,-122.02C773,-139.37 773,-163 773,-163 773,-163 637.8,-163 637.8,-163"/>
<polygon fill="black" stroke="black" points="637.8,-159.5 627.8,-163 637.8,-166.5 637.8,-159.5"/>
</g>
</g>
</svg>
