<?xml version="1.0" encoding="UTF-8" standalone="no"?>
<!DOCTYPE svg PUBLIC "-//W3C//DTD SVG 1.1//EN"
 "http://www.w3.org/Graphics/SVG/1.1/DTD/svg11.dtd">
<!-- Generated by graphviz version 2.47.0 (20210316.0004)
 -->
<!-- Title: dependencies Pages: 1 -->
<svg width="1011pt" height="211pt"
 viewBox="0.00 0.00 1011.00 211.00" xmlns="http://www.w3.org/2000/svg" xmlns:xlink="http://www.w3.org/1999/xlink">
<g id="graph0" class="graph" transform="scale(1 1) rotate(0) translate(4 207)">
<title>dependencies</title>
<polygon fill="white" stroke="transparent" points="-4,4 -4,-207 1007,-207 1007,4 -4,4"/>
<text text-anchor="start" x="480.51" y="-42.4" font-family="Times-12" font-weight="bold" font-size="14.00">Legend</text>
<polygon fill="#ffffb3" stroke="transparent" points="267.5,-10 267.5,-30 287.5,-30 287.5,-10 267.5,-10"/>
<text text-anchor="start" x="291.13" y="-15.4" font-family="Times-12" font-size="14.00"> &#160;Declarations</text>
<polygon fill="#8dd3c7" stroke="transparent" points="380.5,-10 380.5,-30 400.5,-30 400.5,-10 380.5,-10"/>
<text text-anchor="start" x="404.23" y="-15.4" font-family="Times-12" font-size="14.00"> &#160;Module</text>
<polygon fill="#80b1d3" stroke="transparent" points="466.5,-10 466.5,-30 486.5,-30 486.5,-10 466.5,-10"/>
<text text-anchor="start" x="490.28" y="-15.4" font-family="Times-12" font-size="14.00"> &#160;Bootstrap</text>
<polygon fill="#fdb462" stroke="transparent" points="563.5,-10 563.5,-30 583.5,-30 583.5,-10 563.5,-10"/>
<text text-anchor="start" x="587.17" y="-15.4" font-family="Times-12" font-size="14.00"> &#160;Providers</text>
<polygon fill="#fb8072" stroke="transparent" points="659.5,-10 659.5,-30 679.5,-30 679.5,-10 659.5,-10"/>
<text text-anchor="start" x="683.23" y="-15.4" font-family="Times-12" font-size="14.00"> &#160;Exports</text>
<g id="clust1" class="cluster">
<title>cluster_FormlyConfigModule</title>
<polygon fill="none" stroke="black" stroke-dasharray="1,5" points="8,-70 8,-195 995,-195 995,-70 8,-70"/>
</g>
<g id="clust2" class="cluster">
<title>cluster_FormlyConfigModule_declarations</title>
<polygon fill="none" stroke="black" points="330,-78 330,-130 987,-130 987,-78 330,-78"/>
</g>
<g id="clust6" class="cluster">
<title>cluster_FormlyConfigModule_imports</title>
<polygon fill="none" stroke="black" points="208,-78 208,-130 322,-130 322,-78 208,-78"/>
</g>
<g id="clust9" class="cluster">
<title>cluster_FormlyConfigModule_providers</title>
<polygon fill="none" stroke="black" points="16,-78 16,-130 200,-130 200,-78 16,-78"/>
</g>
<!-- FormlyFieldComboboxComponent -->
<g id="node1" class="node">
<title>FormlyFieldComboboxComponent</title>
<polygon fill="#ffffb3" stroke="black" points="978.56,-122 765.44,-122 765.44,-86 978.56,-86 978.56,-122"/>
<text text-anchor="middle" x="872" y="-99.8" font-family="Times,serif" font-size="14.00">FormlyFieldComboboxComponent</text>
</g>
<!-- FormlyConfigModule -->
<g id="node4" class="node">
<title>FormlyConfigModule</title>
<polygon fill="#8dd3c7" stroke="black" points="503.66,-187 500.66,-191 479.66,-191 476.66,-187 364.34,-187 364.34,-151 503.66,-151 503.66,-187"/>
<text text-anchor="middle" x="434" y="-164.8" font-family="Times,serif" font-size="14.00">FormlyConfigModule</text>
</g>
<!-- FormlyFieldComboboxComponent&#45;&gt;FormlyConfigModule -->
<g id="edge1" class="edge">
<title>FormlyFieldComboboxComponent&#45;&gt;FormlyConfigModule</title>
<path fill="none" stroke="black" d="M872,-122.28C872,-143.32 872,-175 872,-175 872,-175 513.89,-175 513.89,-175"/>
<polygon fill="black" stroke="black" points="513.89,-171.5 503.89,-175 513.89,-178.5 513.89,-171.5"/>
</g>
<!-- FormlyWrapperCardComponent -->
<g id="node2" class="node">
<title>FormlyWrapperCardComponent</title>
<polygon fill="#ffffb3" stroke="black" points="747.23,-122 548.77,-122 548.77,-86 747.23,-86 747.23,-122"/>
<text text-anchor="middle" x="648" y="-99.8" font-family="Times,serif" font-size="14.00">FormlyWrapperCardComponent</text>
</g>
<!-- FormlyWrapperCardComponent&#45;&gt;FormlyConfigModule -->
<g id="edge2" class="edge">
<title>FormlyWrapperCardComponent&#45;&gt;FormlyConfigModule</title>
<path fill="none" stroke="black" d="M648,-122.02C648,-139.37 648,-163 648,-163 648,-163 513.78,-163 513.78,-163"/>
<polygon fill="black" stroke="black" points="513.78,-159.5 503.78,-163 513.78,-166.5 513.78,-159.5"/>
</g>
<!-- FormlyWrapperDivComponent -->
<g id="node3" class="node">
<title>FormlyWrapperDivComponent</title>
<polygon fill="#ffffb3" stroke="black" points="530.02,-122 337.98,-122 337.98,-86 530.02,-86 530.02,-122"/>
<text text-anchor="middle" x="434" y="-99.8" font-family="Times,serif" font-size="14.00">FormlyWrapperDivComponent</text>
</g>
<!-- FormlyWrapperDivComponent&#45;&gt;FormlyConfigModule -->
<g id="edge3" class="edge">
<title>FormlyWrapperDivComponent&#45;&gt;FormlyConfigModule</title>
<path fill="none" stroke="black" d="M434,-122.11C434,-122.11 434,-140.99 434,-140.99"/>
<polygon fill="black" stroke="black" points="430.5,-140.99 434,-150.99 437.5,-140.99 430.5,-140.99"/>
</g>
<!-- SharedModule -->
<g id="node5" class="node">
<title>SharedModule</title>
<polygon fill="#8dd3c7" stroke="black" points="314.42,-122 311.42,-126 290.42,-126 287.42,-122 215.58,-122 215.58,-86 314.42,-86 314.42,-122"/>
<text text-anchor="middle" x="265" y="-99.8" font-family="Times,serif" font-size="14.00">SharedModule</text>
</g>
<!-- SharedModule&#45;&gt;FormlyConfigModule -->
<g id="edge4" class="edge">
<title>SharedModule&#45;&gt;FormlyConfigModule</title>
<path fill="none" stroke="black" d="M265,-122.02C265,-139.37 265,-163 265,-163 265,-163 354.29,-163 354.29,-163"/>
<polygon fill="black" stroke="black" points="354.29,-166.5 364.29,-163 354.29,-159.5 354.29,-166.5"/>
</g>
<!-- FormlyValidations -->
<g id="node6" class="node">
<title>FormlyValidations</title>
<ellipse fill="#fdb462" stroke="black" cx="108" cy="-104" rx="83.99" ry="18"/>
<text text-anchor="middle" x="108" y="-99.8" font-family="Times,serif" font-size="14.00">FormlyValidations</text>
</g>
<!-- FormlyValidations&#45;&gt;FormlyConfigModule -->
<g id="edge5" class="edge">
<title>FormlyValidations&#45;&gt;FormlyConfigModule</title>
<path fill="none" stroke="black" d="M108,-122.28C108,-143.32 108,-175 108,-175 108,-175 354.06,-175 354.06,-175"/>
<polygon fill="black" stroke="black" points="354.06,-178.5 364.06,-175 354.06,-171.5 354.06,-178.5"/>
</g>
</g>
</svg>
