<?xml version="1.0" encoding="UTF-8" standalone="no"?>
<!DOCTYPE svg PUBLIC "-//W3C//DTD SVG 1.1//EN"
 "http://www.w3.org/Graphics/SVG/1.1/DTD/svg11.dtd">
<!-- Generated by graphviz version 2.47.0 (20210316.0004)
 -->
<!-- Title: dependencies Pages: 1 -->
<svg width="3122pt" height="211pt"
 viewBox="0.00 0.00 3122.00 211.00" xmlns="http://www.w3.org/2000/svg" xmlns:xlink="http://www.w3.org/1999/xlink">
<g id="graph0" class="graph" transform="scale(1 1) rotate(0) translate(4 207)">
<title>dependencies</title>
<polygon fill="white" stroke="transparent" points="-4,4 -4,-207 3118,-207 3118,4 -4,4"/>
<text text-anchor="start" x="1536.01" y="-42.4" font-family="Times-12" font-weight="bold" font-size="14.00">Legend</text>
<polygon fill="#ffffb3" stroke="transparent" points="1323,-10 1323,-30 1343,-30 1343,-10 1323,-10"/>
<text text-anchor="start" x="1346.63" y="-15.4" font-family="Times-12" font-size="14.00"> &#160;Declarations</text>
<polygon fill="#8dd3c7" stroke="transparent" points="1436,-10 1436,-30 1456,-30 1456,-10 1436,-10"/>
<text text-anchor="start" x="1459.73" y="-15.4" font-family="Times-12" font-size="14.00"> &#160;Module</text>
<polygon fill="#80b1d3" stroke="transparent" points="1522,-10 1522,-30 1542,-30 1542,-10 1522,-10"/>
<text text-anchor="start" x="1545.78" y="-15.4" font-family="Times-12" font-size="14.00"> &#160;Bootstrap</text>
<polygon fill="#fdb462" stroke="transparent" points="1619,-10 1619,-30 1639,-30 1639,-10 1619,-10"/>
<text text-anchor="start" x="1642.67" y="-15.4" font-family="Times-12" font-size="14.00"> &#160;Providers</text>
<polygon fill="#fb8072" stroke="transparent" points="1715,-10 1715,-30 1735,-30 1735,-10 1715,-10"/>
<text text-anchor="start" x="1738.73" y="-15.4" font-family="Times-12" font-size="14.00"> &#160;Exports</text>
<g id="clust1" class="cluster">
<title>cluster_ThemeModule</title>
<polygon fill="none" stroke="black" stroke-dasharray="1,5" points="8,-70 8,-195 3106,-195 3106,-70 8,-70"/>
</g>
<g id="clust2" class="cluster">
<title>cluster_ThemeModule_declarations</title>
<polygon fill="none" stroke="black" points="138,-78 138,-130 3098,-130 3098,-78 138,-78"/>
</g>
<g id="clust21" class="cluster">
<title>cluster_ThemeModule_imports</title>
<polygon fill="none" stroke="black" points="16,-78 16,-130 130,-130 130,-78 16,-78"/>
</g>
<!-- AdminLayoutComponent -->
<g id="node1" class="node">
<title>AdminLayoutComponent</title>
<polygon fill="#ffffb3" stroke="black" points="3089.88,-122 2930.12,-122 2930.12,-86 3089.88,-86 3089.88,-122"/>
<text text-anchor="middle" x="3010" y="-99.8" font-family="Times,serif" font-size="14.00">AdminLayoutComponent</text>
</g>
<!-- ThemeModule -->
<g id="node19" class="node">
<title>ThemeModule</title>
<polygon fill="#8dd3c7" stroke="black" points="1518.42,-187 1515.42,-191 1494.42,-191 1491.42,-187 1419.58,-187 1419.58,-151 1518.42,-151 1518.42,-187"/>
<text text-anchor="middle" x="1469" y="-164.8" font-family="Times,serif" font-size="14.00">ThemeModule</text>
</g>
<!-- AdminLayoutComponent&#45;&gt;ThemeModule -->
<g id="edge1" class="edge">
<title>AdminLayoutComponent&#45;&gt;ThemeModule</title>
<path fill="none" stroke="black" d="M3010,-122.15C3010,-145.76 3010,-184 3010,-184 3010,-184 1528.53,-184 1528.53,-184"/>
<polygon fill="black" stroke="black" points="1528.53,-180.5 1518.53,-184 1528.53,-187.5 1528.53,-180.5"/>
</g>
<!-- AuthLayoutComponent -->
<g id="node2" class="node">
<title>AuthLayoutComponent</title>
<polygon fill="#ffffb3" stroke="black" points="2912.49,-122 2763.51,-122 2763.51,-86 2912.49,-86 2912.49,-122"/>
<text text-anchor="middle" x="2838" y="-99.8" font-family="Times,serif" font-size="14.00">AuthLayoutComponent</text>
</g>
<!-- AuthLayoutComponent&#45;&gt;ThemeModule -->
<g id="edge2" class="edge">
<title>AuthLayoutComponent&#45;&gt;ThemeModule</title>
<path fill="none" stroke="black" d="M2838,-122.01C2838,-144.49 2838,-180 2838,-180 2838,-180 1528.53,-180 1528.53,-180"/>
<polygon fill="black" stroke="black" points="1528.53,-176.5 1518.53,-180 1528.53,-183.5 1528.53,-176.5"/>
</g>
<!-- BrandingComponent -->
<g id="node3" class="node">
<title>BrandingComponent</title>
<polygon fill="#ffffb3" stroke="black" points="2745.94,-122 2612.06,-122 2612.06,-86 2745.94,-86 2745.94,-122"/>
<text text-anchor="middle" x="2679" y="-99.8" font-family="Times,serif" font-size="14.00">BrandingComponent</text>
</g>
<!-- BrandingComponent&#45;&gt;ThemeModule -->
<g id="edge3" class="edge">
<title>BrandingComponent&#45;&gt;ThemeModule</title>
<path fill="none" stroke="black" d="M2679,-122.04C2679,-143.66 2679,-177 2679,-177 2679,-177 1528.31,-177 1528.31,-177"/>
<polygon fill="black" stroke="black" points="1528.31,-173.5 1518.31,-177 1528.31,-180.5 1528.31,-173.5"/>
</g>
<!-- CustomizerComponent -->
<g id="node4" class="node">
<title>CustomizerComponent</title>
<polygon fill="#ffffb3" stroke="black" points="2593.88,-122 2448.12,-122 2448.12,-86 2593.88,-86 2593.88,-122"/>
<text text-anchor="middle" x="2521" y="-99.8" font-family="Times,serif" font-size="14.00">CustomizerComponent</text>
</g>
<!-- CustomizerComponent&#45;&gt;ThemeModule -->
<g id="edge4" class="edge">
<title>CustomizerComponent&#45;&gt;ThemeModule</title>
<path fill="none" stroke="black" d="M2521,-122.13C2521,-142.57 2521,-173 2521,-173 2521,-173 1528.33,-173 1528.33,-173"/>
<polygon fill="black" stroke="black" points="1528.33,-169.5 1518.33,-173 1528.33,-176.5 1528.33,-169.5"/>
</g>
<!-- GithubButtonComponent -->
<g id="node5" class="node">
<title>GithubButtonComponent</title>
<polygon fill="#ffffb3" stroke="black" points="2430.34,-122 2271.66,-122 2271.66,-86 2430.34,-86 2430.34,-122"/>
<text text-anchor="middle" x="2351" y="-99.8" font-family="Times,serif" font-size="14.00">GithubButtonComponent</text>
</g>
<!-- GithubButtonComponent&#45;&gt;ThemeModule -->
<g id="edge5" class="edge">
<title>GithubButtonComponent&#45;&gt;ThemeModule</title>
<path fill="none" stroke="black" d="M2351,-122.11C2351,-141.34 2351,-169 2351,-169 2351,-169 1528.31,-169 1528.31,-169"/>
<polygon fill="black" stroke="black" points="1528.31,-165.5 1518.31,-169 1528.31,-172.5 1528.31,-165.5"/>
</g>
<!-- HeaderComponent -->
<g id="node6" class="node">
<title>HeaderComponent</title>
<polygon fill="#ffffb3" stroke="black" points="2253.74,-122 2132.26,-122 2132.26,-86 2253.74,-86 2253.74,-122"/>
<text text-anchor="middle" x="2193" y="-99.8" font-family="Times,serif" font-size="14.00">HeaderComponent</text>
</g>
<!-- HeaderComponent&#45;&gt;ThemeModule -->
<g id="edge6" class="edge">
<title>HeaderComponent&#45;&gt;ThemeModule</title>
<path fill="none" stroke="black" d="M2193,-122.27C2193,-140.56 2193,-166 2193,-166 2193,-166 1528.48,-166 1528.48,-166"/>
<polygon fill="black" stroke="black" points="1528.48,-162.5 1518.48,-166 1528.48,-169.5 1528.48,-162.5"/>
</g>
<!-- NavAccordionDirective -->
<g id="node7" class="node">
<title>NavAccordionDirective</title>
<polygon fill="#ffffb3" stroke="black" points="2114.49,-122 1963.51,-122 1963.51,-86 2114.49,-86 2114.49,-122"/>
<text text-anchor="middle" x="2039" y="-99.8" font-family="Times,serif" font-size="14.00">NavAccordionDirective</text>
</g>
<!-- NavAccordionDirective&#45;&gt;ThemeModule -->
<g id="edge7" class="edge">
<title>NavAccordionDirective&#45;&gt;ThemeModule</title>
<path fill="none" stroke="black" d="M2039,-122.03C2039,-139.06 2039,-162 2039,-162 2039,-162 1528.59,-162 1528.59,-162"/>
<polygon fill="black" stroke="black" points="1528.59,-158.5 1518.59,-162 1528.59,-165.5 1528.59,-158.5"/>
</g>
<!-- NavAccordionItemDirective -->
<g id="node8" class="node">
<title>NavAccordionItemDirective</title>
<polygon fill="#ffffb3" stroke="black" points="1946.15,-122 1769.85,-122 1769.85,-86 1946.15,-86 1946.15,-122"/>
<text text-anchor="middle" x="1858" y="-99.8" font-family="Times,serif" font-size="14.00">NavAccordionItemDirective</text>
</g>
<!-- NavAccordionItemDirective&#45;&gt;ThemeModule -->
<g id="edge8" class="edge">
<title>NavAccordionItemDirective&#45;&gt;ThemeModule</title>
<path fill="none" stroke="black" d="M1858,-122.01C1858,-138.05 1858,-159 1858,-159 1858,-159 1528.27,-159 1528.27,-159"/>
<polygon fill="black" stroke="black" points="1528.27,-155.5 1518.27,-159 1528.27,-162.5 1528.27,-155.5"/>
</g>
<!-- NavAccordionToggleDirective -->
<g id="node9" class="node">
<title>NavAccordionToggleDirective</title>
<polygon fill="#ffffb3" stroke="black" points="1752.15,-122 1561.85,-122 1561.85,-86 1752.15,-86 1752.15,-122"/>
<text text-anchor="middle" x="1657" y="-99.8" font-family="Times,serif" font-size="14.00">NavAccordionToggleDirective</text>
</g>
<!-- NavAccordionToggleDirective&#45;&gt;ThemeModule -->
<g id="edge9" class="edge">
<title>NavAccordionToggleDirective&#45;&gt;ThemeModule</title>
<path fill="none" stroke="black" d="M1657,-122.12C1657,-136.78 1657,-155 1657,-155 1657,-155 1528.39,-155 1528.39,-155"/>
<polygon fill="black" stroke="black" points="1528.39,-151.5 1518.39,-155 1528.39,-158.5 1528.39,-151.5"/>
</g>
<!-- NotificationComponent -->
<g id="node10" class="node">
<title>NotificationComponent</title>
<polygon fill="#ffffb3" stroke="black" points="1543.48,-122 1394.52,-122 1394.52,-86 1543.48,-86 1543.48,-122"/>
<text text-anchor="middle" x="1469" y="-99.8" font-family="Times,serif" font-size="14.00">NotificationComponent</text>
</g>
<!-- NotificationComponent&#45;&gt;ThemeModule -->
<g id="edge10" class="edge">
<title>NotificationComponent&#45;&gt;ThemeModule</title>
<path fill="none" stroke="black" d="M1469,-122.11C1469,-122.11 1469,-140.99 1469,-140.99"/>
<polygon fill="black" stroke="black" points="1465.5,-140.99 1469,-150.99 1472.5,-140.99 1465.5,-140.99"/>
</g>
<!-- SidebarComponent -->
<g id="node11" class="node">
<title>SidebarComponent</title>
<polygon fill="#ffffb3" stroke="black" points="1376.1,-122 1251.9,-122 1251.9,-86 1376.1,-86 1376.1,-122"/>
<text text-anchor="middle" x="1314" y="-99.8" font-family="Times,serif" font-size="14.00">SidebarComponent</text>
</g>
<!-- SidebarComponent&#45;&gt;ThemeModule -->
<g id="edge11" class="edge">
<title>SidebarComponent&#45;&gt;ThemeModule</title>
<path fill="none" stroke="black" d="M1314,-122.12C1314,-136.78 1314,-155 1314,-155 1314,-155 1409.53,-155 1409.53,-155"/>
<polygon fill="black" stroke="black" points="1409.53,-158.5 1419.53,-155 1409.53,-151.5 1409.53,-158.5"/>
</g>
<!-- SidebarNoticeComponent -->
<g id="node12" class="node">
<title>SidebarNoticeComponent</title>
<polygon fill="#ffffb3" stroke="black" points="1233.91,-122 1072.09,-122 1072.09,-86 1233.91,-86 1233.91,-122"/>
<text text-anchor="middle" x="1153" y="-99.8" font-family="Times,serif" font-size="14.00">SidebarNoticeComponent</text>
</g>
<!-- SidebarNoticeComponent&#45;&gt;ThemeModule -->
<g id="edge12" class="edge">
<title>SidebarNoticeComponent&#45;&gt;ThemeModule</title>
<path fill="none" stroke="black" d="M1153,-122.01C1153,-138.05 1153,-159 1153,-159 1153,-159 1409.62,-159 1409.62,-159"/>
<polygon fill="black" stroke="black" points="1409.63,-162.5 1419.62,-159 1409.62,-155.5 1409.63,-162.5"/>
</g>
<!-- SidemenuComponent -->
<g id="node13" class="node">
<title>SidemenuComponent</title>
<polygon fill="#ffffb3" stroke="black" points="1054.83,-122 917.17,-122 917.17,-86 1054.83,-86 1054.83,-122"/>
<text text-anchor="middle" x="986" y="-99.8" font-family="Times,serif" font-size="14.00">SidemenuComponent</text>
</g>
<!-- SidemenuComponent&#45;&gt;ThemeModule -->
<g id="edge13" class="edge">
<title>SidemenuComponent&#45;&gt;ThemeModule</title>
<path fill="none" stroke="black" d="M986,-122.03C986,-139.06 986,-162 986,-162 986,-162 1409.58,-162 1409.58,-162"/>
<polygon fill="black" stroke="black" points="1409.58,-165.5 1419.58,-162 1409.58,-158.5 1409.58,-165.5"/>
</g>
<!-- TopmenuComponent -->
<g id="node14" class="node">
<title>TopmenuComponent</title>
<polygon fill="#ffffb3" stroke="black" points="899.49,-122 764.51,-122 764.51,-86 899.49,-86 899.49,-122"/>
<text text-anchor="middle" x="832" y="-99.8" font-family="Times,serif" font-size="14.00">TopmenuComponent</text>
</g>
<!-- TopmenuComponent&#45;&gt;ThemeModule -->
<g id="edge14" class="edge">
<title>TopmenuComponent&#45;&gt;ThemeModule</title>
<path fill="none" stroke="black" d="M832,-122.27C832,-140.56 832,-166 832,-166 832,-166 1409.55,-166 1409.55,-166"/>
<polygon fill="black" stroke="black" points="1409.55,-169.5 1419.55,-166 1409.55,-162.5 1409.55,-169.5"/>
</g>
<!-- TopmenuPanelComponent -->
<g id="node15" class="node">
<title>TopmenuPanelComponent</title>
<polygon fill="#ffffb3" stroke="black" points="746.09,-122 579.91,-122 579.91,-86 746.09,-86 746.09,-122"/>
<text text-anchor="middle" x="663" y="-99.8" font-family="Times,serif" font-size="14.00">TopmenuPanelComponent</text>
</g>
<!-- TopmenuPanelComponent&#45;&gt;ThemeModule -->
<g id="edge15" class="edge">
<title>TopmenuPanelComponent&#45;&gt;ThemeModule</title>
<path fill="none" stroke="black" d="M663,-122.11C663,-141.34 663,-169 663,-169 663,-169 1409.49,-169 1409.49,-169"/>
<polygon fill="black" stroke="black" points="1409.49,-172.5 1419.49,-169 1409.49,-165.5 1409.49,-172.5"/>
</g>
<!-- TranslateComponent -->
<g id="node16" class="node">
<title>TranslateComponent</title>
<polygon fill="#ffffb3" stroke="black" points="561.92,-122 428.08,-122 428.08,-86 561.92,-86 561.92,-122"/>
<text text-anchor="middle" x="495" y="-99.8" font-family="Times,serif" font-size="14.00">TranslateComponent</text>
</g>
<!-- TranslateComponent&#45;&gt;ThemeModule -->
<g id="edge16" class="edge">
<title>TranslateComponent&#45;&gt;ThemeModule</title>
<path fill="none" stroke="black" d="M495,-122.13C495,-142.57 495,-173 495,-173 495,-173 1409.7,-173 1409.7,-173"/>
<polygon fill="black" stroke="black" points="1409.7,-176.5 1419.7,-173 1409.7,-169.5 1409.7,-176.5"/>
</g>
<!-- UserComponent -->
<g id="node17" class="node">
<title>UserComponent</title>
<polygon fill="#ffffb3" stroke="black" points="409.76,-122 302.24,-122 302.24,-86 409.76,-86 409.76,-122"/>
<text text-anchor="middle" x="356" y="-99.8" font-family="Times,serif" font-size="14.00">UserComponent</text>
</g>
<!-- UserComponent&#45;&gt;ThemeModule -->
<g id="edge17" class="edge">
<title>UserComponent&#45;&gt;ThemeModule</title>
<path fill="none" stroke="black" d="M356,-122.04C356,-143.66 356,-177 356,-177 356,-177 1409.74,-177 1409.74,-177"/>
<polygon fill="black" stroke="black" points="1409.74,-180.5 1419.74,-177 1409.74,-173.5 1409.74,-180.5"/>
</g>
<!-- UserPanelComponent -->
<g id="node18" class="node">
<title>UserPanelComponent</title>
<polygon fill="#ffffb3" stroke="black" points="284.36,-122 145.64,-122 145.64,-86 284.36,-86 284.36,-122"/>
<text text-anchor="middle" x="215" y="-99.8" font-family="Times,serif" font-size="14.00">UserPanelComponent</text>
</g>
<!-- UserPanelComponent&#45;&gt;ThemeModule -->
<g id="edge18" class="edge">
<title>UserPanelComponent&#45;&gt;ThemeModule</title>
<path fill="none" stroke="black" d="M215,-122.01C215,-144.49 215,-180 215,-180 215,-180 1409.46,-180 1409.46,-180"/>
<polygon fill="black" stroke="black" points="1409.46,-183.5 1419.46,-180 1409.46,-176.5 1409.46,-183.5"/>
</g>
<!-- SharedModule -->
<g id="node20" class="node">
<title>SharedModule</title>
<polygon fill="#8dd3c7" stroke="black" points="122.42,-122 119.42,-126 98.42,-126 95.42,-122 23.58,-122 23.58,-86 122.42,-86 122.42,-122"/>
<text text-anchor="middle" x="73" y="-99.8" font-family="Times,serif" font-size="14.00">SharedModule</text>
</g>
<!-- SharedModule&#45;&gt;ThemeModule -->
<g id="edge19" class="edge">
<title>SharedModule&#45;&gt;ThemeModule</title>
<path fill="none" stroke="black" d="M73,-122.15C73,-145.76 73,-184 73,-184 73,-184 1409.73,-184 1409.73,-184"/>
<polygon fill="black" stroke="black" points="1409.73,-187.5 1419.73,-184 1409.73,-180.5 1409.73,-187.5"/>
</g>
</g>
</svg>
