<?xml version="1.0" encoding="UTF-8" standalone="no"?>
<!DOCTYPE svg PUBLIC "-//W3C//DTD SVG 1.1//EN"
 "http://www.w3.org/Graphics/SVG/1.1/DTD/svg11.dtd">
<!-- Generated by graphviz version 2.47.0 (20210316.0004)
 -->
<!-- Title: dependencies Pages: 1 -->
<svg width="504pt" height="211pt"
 viewBox="0.00 0.00 504.00 211.00" xmlns="http://www.w3.org/2000/svg" xmlns:xlink="http://www.w3.org/1999/xlink">
<g id="graph0" class="graph" transform="scale(1 1) rotate(0) translate(4 207)">
<title>dependencies</title>
<polygon fill="white" stroke="transparent" points="-4,4 -4,-207 500,-207 500,4 -4,4"/>
<text text-anchor="start" x="227.01" y="-42.4" font-family="Times-12" font-weight="bold" font-size="14.00">Legend</text>
<polygon fill="#ffffb3" stroke="transparent" points="14,-10 14,-30 34,-30 34,-10 14,-10"/>
<text text-anchor="start" x="37.63" y="-15.4" font-family="Times-12" font-size="14.00"> &#160;Declarations</text>
<polygon fill="#8dd3c7" stroke="transparent" points="127,-10 127,-30 147,-30 147,-10 127,-10"/>
<text text-anchor="start" x="150.73" y="-15.4" font-family="Times-12" font-size="14.00"> &#160;Module</text>
<polygon fill="#80b1d3" stroke="transparent" points="213,-10 213,-30 233,-30 233,-10 213,-10"/>
<text text-anchor="start" x="236.78" y="-15.4" font-family="Times-12" font-size="14.00"> &#160;Bootstrap</text>
<polygon fill="#fdb462" stroke="transparent" points="310,-10 310,-30 330,-30 330,-10 310,-10"/>
<text text-anchor="start" x="333.67" y="-15.4" font-family="Times-12" font-size="14.00"> &#160;Providers</text>
<polygon fill="#fb8072" stroke="transparent" points="406,-10 406,-30 426,-30 426,-10 406,-10"/>
<text text-anchor="start" x="429.73" y="-15.4" font-family="Times-12" font-size="14.00"> &#160;Exports</text>
<g id="clust1" class="cluster">
<title>cluster_SessionsModule</title>
<polygon fill="none" stroke="black" stroke-dasharray="1,5" points="97.5,-70 97.5,-195 398.5,-195 398.5,-70 97.5,-70"/>
</g>
<g id="clust3" class="cluster">
<title>cluster_SessionsModule_imports</title>
<polygon fill="none" stroke="black" points="105.5,-78 105.5,-130 390.5,-130 390.5,-78 105.5,-78"/>
</g>
<!-- SessionsRoutingModule -->
<g id="node1" class="node">
<title>SessionsRoutingModule</title>
<polygon fill="#8dd3c7" stroke="black" points="382.89,-122 379.89,-126 358.89,-126 355.89,-122 230.11,-122 230.11,-86 382.89,-86 382.89,-122"/>
<text text-anchor="middle" x="306.5" y="-99.8" font-family="Times,serif" font-size="14.00">SessionsRoutingModule</text>
</g>
<!-- SessionsModule -->
<g id="node3" class="node">
<title>SessionsModule</title>
<polygon fill="#8dd3c7" stroke="black" points="288.27,-187 285.27,-191 264.27,-191 261.27,-187 180.73,-187 180.73,-151 288.27,-151 288.27,-187"/>
<text text-anchor="middle" x="234.5" y="-164.8" font-family="Times,serif" font-size="14.00">SessionsModule</text>
</g>
<!-- SessionsRoutingModule&#45;&gt;SessionsModule -->
<g id="edge1" class="edge">
<title>SessionsRoutingModule&#45;&gt;SessionsModule</title>
<path fill="none" stroke="black" d="M259.22,-122.11C259.22,-122.11 259.22,-140.99 259.22,-140.99"/>
<polygon fill="black" stroke="black" points="255.72,-140.99 259.22,-150.99 262.72,-140.99 255.72,-140.99"/>
</g>
<!-- SharedModule -->
<g id="node2" class="node">
<title>SharedModule</title>
<polygon fill="#8dd3c7" stroke="black" points="211.92,-122 208.92,-126 187.92,-126 184.92,-122 113.08,-122 113.08,-86 211.92,-86 211.92,-122"/>
<text text-anchor="middle" x="162.5" y="-99.8" font-family="Times,serif" font-size="14.00">SharedModule</text>
</g>
<!-- SharedModule&#45;&gt;SessionsModule -->
<g id="edge2" class="edge">
<title>SharedModule&#45;&gt;SessionsModule</title>
<path fill="none" stroke="black" d="M196.16,-122.11C196.16,-122.11 196.16,-140.99 196.16,-140.99"/>
<polygon fill="black" stroke="black" points="192.66,-140.99 196.16,-150.99 199.66,-140.99 192.66,-140.99"/>
</g>
</g>
</svg>
