<?xml version="1.0" encoding="UTF-8" standalone="no"?>
<!DOCTYPE svg PUBLIC "-//W3C//DTD SVG 1.1//EN"
 "http://www.w3.org/Graphics/SVG/1.1/DTD/svg11.dtd">
<!-- Generated by graphviz version 2.47.0 (20210316.0004)
 -->
<!-- Title: dependencies Pages: 1 -->
<svg width="504pt" height="211pt"
 viewBox="0.00 0.00 504.00 211.00" xmlns="http://www.w3.org/2000/svg" xmlns:xlink="http://www.w3.org/1999/xlink">
<g id="graph0" class="graph" transform="scale(1 1) rotate(0) translate(4 207)">
<title>dependencies</title>
<polygon fill="white" stroke="transparent" points="-4,4 -4,-207 500,-207 500,4 -4,4"/>
<text text-anchor="start" x="227.01" y="-42.4" font-family="Times-12" font-weight="bold" font-size="14.00">Legend</text>
<polygon fill="#ffffb3" stroke="transparent" points="14,-10 14,-30 34,-30 34,-10 14,-10"/>
<text text-anchor="start" x="37.63" y="-15.4" font-family="Times-12" font-size="14.00"> &#160;Declarations</text>
<polygon fill="#8dd3c7" stroke="transparent" points="127,-10 127,-30 147,-30 147,-10 127,-10"/>
<text text-anchor="start" x="150.73" y="-15.4" font-family="Times-12" font-size="14.00"> &#160;Module</text>
<polygon fill="#80b1d3" stroke="transparent" points="213,-10 213,-30 233,-30 233,-10 213,-10"/>
<text text-anchor="start" x="236.78" y="-15.4" font-family="Times-12" font-size="14.00"> &#160;Bootstrap</text>
<polygon fill="#fdb462" stroke="transparent" points="310,-10 310,-30 330,-30 330,-10 310,-10"/>
<text text-anchor="start" x="333.67" y="-15.4" font-family="Times-12" font-size="14.00"> &#160;Providers</text>
<polygon fill="#fb8072" stroke="transparent" points="406,-10 406,-30 426,-30 426,-10 406,-10"/>
<text text-anchor="start" x="429.73" y="-15.4" font-family="Times-12" font-size="14.00"> &#160;Exports</text>
<g id="clust1" class="cluster">
<title>cluster_RoutesModule</title>
<polygon fill="none" stroke="black" stroke-dasharray="1,5" points="102,-70 102,-195 394,-195 394,-70 102,-70"/>
</g>
<g id="clust3" class="cluster">
<title>cluster_RoutesModule_imports</title>
<polygon fill="none" stroke="black" points="110,-78 110,-130 386,-130 386,-78 110,-78"/>
</g>
<!-- RoutesRoutingModule -->
<g id="node1" class="node">
<title>RoutesRoutingModule</title>
<polygon fill="#8dd3c7" stroke="black" points="377.55,-122 374.55,-126 353.55,-126 350.55,-122 234.45,-122 234.45,-86 377.55,-86 377.55,-122"/>
<text text-anchor="middle" x="306" y="-99.8" font-family="Times,serif" font-size="14.00">RoutesRoutingModule</text>
</g>
<!-- RoutesModule -->
<g id="node3" class="node">
<title>RoutesModule</title>
<polygon fill="#8dd3c7" stroke="black" points="285.44,-187 282.44,-191 261.44,-191 258.44,-187 186.56,-187 186.56,-151 285.44,-151 285.44,-187"/>
<text text-anchor="middle" x="236" y="-164.8" font-family="Times,serif" font-size="14.00">RoutesModule</text>
</g>
<!-- RoutesRoutingModule&#45;&gt;RoutesModule -->
<g id="edge1" class="edge">
<title>RoutesRoutingModule&#45;&gt;RoutesModule</title>
<path fill="none" stroke="black" d="M259.72,-122.11C259.72,-122.11 259.72,-140.99 259.72,-140.99"/>
<polygon fill="black" stroke="black" points="256.22,-140.99 259.72,-150.99 263.22,-140.99 256.22,-140.99"/>
</g>
<!-- SharedModule -->
<g id="node2" class="node">
<title>SharedModule</title>
<polygon fill="#8dd3c7" stroke="black" points="216.42,-122 213.42,-126 192.42,-126 189.42,-122 117.58,-122 117.58,-86 216.42,-86 216.42,-122"/>
<text text-anchor="middle" x="167" y="-99.8" font-family="Times,serif" font-size="14.00">SharedModule</text>
</g>
<!-- SharedModule&#45;&gt;RoutesModule -->
<g id="edge2" class="edge">
<title>SharedModule&#45;&gt;RoutesModule</title>
<path fill="none" stroke="black" d="M201.5,-122.11C201.5,-122.11 201.5,-140.99 201.5,-140.99"/>
<polygon fill="black" stroke="black" points="198,-140.99 201.5,-150.99 205,-140.99 198,-140.99"/>
</g>
</g>
</svg>
