<?xml version="1.0" encoding="UTF-8" standalone="no"?>
<!DOCTYPE svg PUBLIC "-//W3C//DTD SVG 1.1//EN"
 "http://www.w3.org/Graphics/SVG/1.1/DTD/svg11.dtd">
<!-- Generated by graphviz version 2.47.0 (20210316.0004)
 -->
<!-- Title: dependencies Pages: 1 -->
<svg width="504pt" height="211pt"
 viewBox="0.00 0.00 504.00 211.00" xmlns="http://www.w3.org/2000/svg" xmlns:xlink="http://www.w3.org/1999/xlink">
<g id="graph0" class="graph" transform="scale(1 1) rotate(0) translate(4 207)">
<title>dependencies</title>
<polygon fill="white" stroke="transparent" points="-4,4 -4,-207 500,-207 500,4 -4,4"/>
<text text-anchor="start" x="227.01" y="-42.4" font-family="Times-12" font-weight="bold" font-size="14.00">Legend</text>
<polygon fill="#ffffb3" stroke="transparent" points="14,-10 14,-30 34,-30 34,-10 14,-10"/>
<text text-anchor="start" x="37.63" y="-15.4" font-family="Times-12" font-size="14.00"> &#160;Declarations</text>
<polygon fill="#8dd3c7" stroke="transparent" points="127,-10 127,-30 147,-30 147,-10 127,-10"/>
<text text-anchor="start" x="150.73" y="-15.4" font-family="Times-12" font-size="14.00"> &#160;Module</text>
<polygon fill="#80b1d3" stroke="transparent" points="213,-10 213,-30 233,-30 233,-10 213,-10"/>
<text text-anchor="start" x="236.78" y="-15.4" font-family="Times-12" font-size="14.00"> &#160;Bootstrap</text>
<polygon fill="#fdb462" stroke="transparent" points="310,-10 310,-30 330,-30 330,-10 310,-10"/>
<text text-anchor="start" x="333.67" y="-15.4" font-family="Times-12" font-size="14.00"> &#160;Providers</text>
<polygon fill="#fb8072" stroke="transparent" points="406,-10 406,-30 426,-30 426,-10 406,-10"/>
<text text-anchor="start" x="429.73" y="-15.4" font-family="Times-12" font-size="14.00"> &#160;Exports</text>
<g id="clust1" class="cluster">
<title>cluster_ProfileModule</title>
<polygon fill="none" stroke="black" stroke-dasharray="1,5" points="102.5,-70 102.5,-195 393.5,-195 393.5,-70 102.5,-70"/>
</g>
<g id="clust3" class="cluster">
<title>cluster_ProfileModule_imports</title>
<polygon fill="none" stroke="black" points="110.5,-78 110.5,-130 385.5,-130 385.5,-78 110.5,-78"/>
</g>
<!-- ProfileRoutingModule -->
<g id="node1" class="node">
<title>ProfileRoutingModule</title>
<polygon fill="#8dd3c7" stroke="black" points="377.77,-122 374.77,-126 353.77,-126 350.77,-122 235.23,-122 235.23,-86 377.77,-86 377.77,-122"/>
<text text-anchor="middle" x="306.5" y="-99.8" font-family="Times,serif" font-size="14.00">ProfileRoutingModule</text>
</g>
<!-- ProfileModule -->
<g id="node3" class="node">
<title>ProfileModule</title>
<polygon fill="#8dd3c7" stroke="black" points="285.15,-187 282.15,-191 261.15,-191 258.15,-187 187.85,-187 187.85,-151 285.15,-151 285.15,-187"/>
<text text-anchor="middle" x="236.5" y="-164.8" font-family="Times,serif" font-size="14.00">ProfileModule</text>
</g>
<!-- ProfileRoutingModule&#45;&gt;ProfileModule -->
<g id="edge1" class="edge">
<title>ProfileRoutingModule&#45;&gt;ProfileModule</title>
<path fill="none" stroke="black" d="M260.22,-122.11C260.22,-122.11 260.22,-140.99 260.22,-140.99"/>
<polygon fill="black" stroke="black" points="256.72,-140.99 260.22,-150.99 263.72,-140.99 256.72,-140.99"/>
</g>
<!-- SharedModule -->
<g id="node2" class="node">
<title>SharedModule</title>
<polygon fill="#8dd3c7" stroke="black" points="216.92,-122 213.92,-126 192.92,-126 189.92,-122 118.08,-122 118.08,-86 216.92,-86 216.92,-122"/>
<text text-anchor="middle" x="167.5" y="-99.8" font-family="Times,serif" font-size="14.00">SharedModule</text>
</g>
<!-- SharedModule&#45;&gt;ProfileModule -->
<g id="edge2" class="edge">
<title>SharedModule&#45;&gt;ProfileModule</title>
<path fill="none" stroke="black" d="M202.19,-122.11C202.19,-122.11 202.19,-140.99 202.19,-140.99"/>
<polygon fill="black" stroke="black" points="198.69,-140.99 202.19,-150.99 205.69,-140.99 198.69,-140.99"/>
</g>
</g>
</svg>
