<?xml version="1.0" encoding="UTF-8" standalone="no"?>
<!DOCTYPE svg PUBLIC "-//W3C//DTD SVG 1.1//EN"
 "http://www.w3.org/Graphics/SVG/1.1/DTD/svg11.dtd">
<!-- Generated by graphviz version 2.47.0 (20210316.0004)
 -->
<!-- Title: dependencies Pages: 1 -->
<svg width="780pt" height="284pt"
 viewBox="0.00 0.00 780.00 284.00" xmlns="http://www.w3.org/2000/svg" xmlns:xlink="http://www.w3.org/1999/xlink">
<g id="graph0" class="graph" transform="scale(1 1) rotate(0) translate(4 280)">
<title>dependencies</title>
<polygon fill="white" stroke="transparent" points="-4,4 -4,-280 776,-280 776,4 -4,4"/>
<text text-anchor="start" x="365.01" y="-42.4" font-family="Times-12" font-weight="bold" font-size="14.00">Legend</text>
<polygon fill="#ffffb3" stroke="transparent" points="152,-10 152,-30 172,-30 172,-10 152,-10"/>
<text text-anchor="start" x="175.63" y="-15.4" font-family="Times-12" font-size="14.00"> &#160;Declarations</text>
<polygon fill="#8dd3c7" stroke="transparent" points="265,-10 265,-30 285,-30 285,-10 265,-10"/>
<text text-anchor="start" x="288.73" y="-15.4" font-family="Times-12" font-size="14.00"> &#160;Module</text>
<polygon fill="#80b1d3" stroke="transparent" points="351,-10 351,-30 371,-30 371,-10 351,-10"/>
<text text-anchor="start" x="374.78" y="-15.4" font-family="Times-12" font-size="14.00"> &#160;Bootstrap</text>
<polygon fill="#fdb462" stroke="transparent" points="448,-10 448,-30 468,-30 468,-10 448,-10"/>
<text text-anchor="start" x="471.67" y="-15.4" font-family="Times-12" font-size="14.00"> &#160;Providers</text>
<polygon fill="#fb8072" stroke="transparent" points="544,-10 544,-30 564,-30 564,-10 544,-10"/>
<text text-anchor="start" x="567.73" y="-15.4" font-family="Times-12" font-size="14.00"> &#160;Exports</text>
<g id="clust1" class="cluster">
<title>cluster_SharedModule</title>
<polygon fill="none" stroke="black" stroke-dasharray="1,5" points="8,-70 8,-268 764,-268 764,-70 8,-70"/>
</g>
<g id="clust7" class="cluster">
<title>cluster_SharedModule_exports</title>
<polygon fill="none" stroke="black" points="16,-208 16,-260 756,-260 756,-208 16,-208"/>
</g>
<g id="clust6" class="cluster">
<title>cluster_SharedModule_imports</title>
<polygon fill="none" stroke="black" points="434,-78 434,-130 743,-130 743,-78 434,-78"/>
</g>
<g id="clust2" class="cluster">
<title>cluster_SharedModule_declarations</title>
<polygon fill="none" stroke="black" points="16,-78 16,-130 426,-130 426,-78 16,-78"/>
</g>
<!-- DisableControlDirective -->
<g id="node1" class="node">
<title>DisableControlDirective</title>
<polygon fill="#ffffb3" stroke="black" points="417.62,-122 264.38,-122 264.38,-86 417.62,-86 417.62,-122"/>
<text text-anchor="middle" x="341" y="-99.8" font-family="Times,serif" font-size="14.00">DisableControlDirective</text>
</g>
<!-- SharedModule -->
<g id="node4" class="node">
<title>SharedModule</title>
<polygon fill="#8dd3c7" stroke="black" points="383.42,-187 380.42,-191 359.42,-191 356.42,-187 284.58,-187 284.58,-151 383.42,-151 383.42,-187"/>
<text text-anchor="middle" x="334" y="-164.8" font-family="Times,serif" font-size="14.00">SharedModule</text>
</g>
<!-- DisableControlDirective&#45;&gt;SharedModule -->
<g id="edge1" class="edge">
<title>DisableControlDirective&#45;&gt;SharedModule</title>
<path fill="none" stroke="black" d="M334,-122.11C334,-122.11 334,-140.99 334,-140.99"/>
<polygon fill="black" stroke="black" points="330.5,-140.99 334,-150.99 337.5,-140.99 330.5,-140.99"/>
</g>
<!-- SafeUrlPipe -->
<g id="node2" class="node">
<title>SafeUrlPipe</title>
<polygon fill="#ffffb3" stroke="black" points="246.42,-122 161.58,-122 161.58,-86 246.42,-86 246.42,-122"/>
<text text-anchor="middle" x="204" y="-99.8" font-family="Times,serif" font-size="14.00">SafeUrlPipe</text>
</g>
<!-- SafeUrlPipe&#45;&gt;SharedModule -->
<g id="edge2" class="edge">
<title>SafeUrlPipe&#45;&gt;SharedModule</title>
<path fill="none" stroke="black" d="M206.12,-122.01C206.12,-138.05 206.12,-159 206.12,-159 206.12,-159 274.56,-159 274.56,-159"/>
<polygon fill="black" stroke="black" points="274.56,-162.5 284.56,-159 274.56,-155.5 274.56,-162.5"/>
</g>
<!-- ToObservablePipe -->
<g id="node3" class="node">
<title>ToObservablePipe</title>
<polygon fill="#ffffb3" stroke="black" points="144.19,-122 23.81,-122 23.81,-86 144.19,-86 144.19,-122"/>
<text text-anchor="middle" x="84" y="-99.8" font-family="Times,serif" font-size="14.00">ToObservablePipe</text>
</g>
<!-- ToObservablePipe&#45;&gt;SharedModule -->
<g id="edge3" class="edge">
<title>ToObservablePipe&#45;&gt;SharedModule</title>
<path fill="none" stroke="black" d="M64.14,-122.27C64.14,-140.56 64.14,-166 64.14,-166 64.14,-166 274.5,-166 274.5,-166"/>
<polygon fill="black" stroke="black" points="274.5,-169.5 284.5,-166 274.5,-162.5 274.5,-169.5"/>
</g>
<!-- DisableControlDirective  -->
<g id="node7" class="node">
<title>DisableControlDirective </title>
<polygon fill="#fb8072" stroke="black" points="747.62,-252 590.38,-252 590.38,-216 747.62,-216 747.62,-252"/>
<text text-anchor="middle" x="669" y="-229.8" font-family="Times,serif" font-size="14.00">DisableControlDirective </text>
</g>
<!-- SharedModule&#45;&gt;DisableControlDirective  -->
<g id="edge6" class="edge">
<title>SharedModule&#45;&gt;DisableControlDirective </title>
<path fill="none" stroke="black" stroke-dasharray="5,2" d="M383.23,-173C474.96,-173 662.82,-173 662.82,-173 662.82,-173 662.82,-205.7 662.82,-205.7"/>
<polygon fill="black" stroke="black" points="659.32,-205.7 662.82,-215.7 666.32,-205.7 659.32,-205.7"/>
</g>
<!-- MaterialExtensionsModule  -->
<g id="node8" class="node">
<title>MaterialExtensionsModule </title>
<polygon fill="#fb8072" stroke="black" points="571.91,-252 400.09,-252 400.09,-216 571.91,-216 571.91,-252"/>
<text text-anchor="middle" x="486" y="-229.8" font-family="Times,serif" font-size="14.00">MaterialExtensionsModule </text>
</g>
<!-- SharedModule&#45;&gt;MaterialExtensionsModule  -->
<g id="edge7" class="edge">
<title>SharedModule&#45;&gt;MaterialExtensionsModule </title>
<path fill="none" stroke="black" stroke-dasharray="5,2" d="M383.56,-180C397.5,-180 408.93,-180 408.93,-180 408.93,-180 408.93,-205.72 408.93,-205.72"/>
<polygon fill="black" stroke="black" points="405.43,-205.72 408.93,-215.72 412.43,-205.72 405.43,-205.72"/>
</g>
<!-- MaterialModule  -->
<g id="node9" class="node">
<title>MaterialModule </title>
<polygon fill="#fb8072" stroke="black" points="382.47,-252 271.53,-252 271.53,-216 382.47,-216 382.47,-252"/>
<text text-anchor="middle" x="327" y="-229.8" font-family="Times,serif" font-size="14.00">MaterialModule </text>
</g>
<!-- SharedModule&#45;&gt;MaterialModule  -->
<g id="edge8" class="edge">
<title>SharedModule&#45;&gt;MaterialModule </title>
<path fill="none" stroke="black" stroke-dasharray="5,2" d="M333.51,-187.11C333.51,-187.11 333.51,-205.99 333.51,-205.99"/>
<polygon fill="black" stroke="black" points="330.01,-205.99 333.51,-215.99 337.01,-205.99 330.01,-205.99"/>
</g>
<!-- SafeUrlPipe  -->
<g id="node10" class="node">
<title>SafeUrlPipe </title>
<polygon fill="#fb8072" stroke="black" points="253.92,-252 166.08,-252 166.08,-216 253.92,-216 253.92,-252"/>
<text text-anchor="middle" x="210" y="-229.8" font-family="Times,serif" font-size="14.00">SafeUrlPipe </text>
</g>
<!-- SharedModule&#45;&gt;SafeUrlPipe  -->
<g id="edge9" class="edge">
<title>SharedModule&#45;&gt;SafeUrlPipe </title>
<path fill="none" stroke="black" stroke-dasharray="5,2" d="M284.7,-180C266.43,-180 250.08,-180 250.08,-180 250.08,-180 250.08,-205.72 250.08,-205.72"/>
<polygon fill="black" stroke="black" points="246.58,-205.72 250.08,-215.72 253.58,-205.72 246.58,-205.72"/>
</g>
<!-- ToObservablePipe  -->
<g id="node11" class="node">
<title>ToObservablePipe </title>
<polygon fill="#fb8072" stroke="black" points="147.69,-252 24.31,-252 24.31,-216 147.69,-216 147.69,-252"/>
<text text-anchor="middle" x="86" y="-229.8" font-family="Times,serif" font-size="14.00">ToObservablePipe </text>
</g>
<!-- SharedModule&#45;&gt;ToObservablePipe  -->
<g id="edge10" class="edge">
<title>SharedModule&#45;&gt;ToObservablePipe </title>
<path fill="none" stroke="black" stroke-dasharray="5,2" d="M284.68,-173C217.14,-173 104.11,-173 104.11,-173 104.11,-173 104.11,-205.7 104.11,-205.7"/>
<polygon fill="black" stroke="black" points="100.61,-205.7 104.11,-215.7 107.61,-205.7 100.61,-205.7"/>
</g>
<!-- MaterialExtensionsModule -->
<g id="node5" class="node">
<title>MaterialExtensionsModule</title>
<polygon fill="#8dd3c7" stroke="black" points="735.41,-122 732.41,-126 711.41,-126 708.41,-122 566.59,-122 566.59,-86 735.41,-86 735.41,-122"/>
<text text-anchor="middle" x="651" y="-99.8" font-family="Times,serif" font-size="14.00">MaterialExtensionsModule</text>
</g>
<!-- MaterialExtensionsModule&#45;&gt;SharedModule -->
<g id="edge4" class="edge">
<title>MaterialExtensionsModule&#45;&gt;SharedModule</title>
<path fill="none" stroke="black" d="M581.2,-122.27C581.2,-140.56 581.2,-166 581.2,-166 581.2,-166 393.43,-166 393.43,-166"/>
<polygon fill="black" stroke="black" points="393.43,-162.5 383.43,-166 393.43,-169.5 393.43,-162.5"/>
</g>
<!-- MaterialModule -->
<g id="node6" class="node">
<title>MaterialModule</title>
<polygon fill="#8dd3c7" stroke="black" points="548.47,-122 545.47,-126 524.47,-126 521.47,-122 441.53,-122 441.53,-86 548.47,-86 548.47,-122"/>
<text text-anchor="middle" x="495" y="-99.8" font-family="Times,serif" font-size="14.00">MaterialModule</text>
</g>
<!-- MaterialModule&#45;&gt;SharedModule -->
<g id="edge5" class="edge">
<title>MaterialModule&#45;&gt;SharedModule</title>
<path fill="none" stroke="black" d="M495,-122.01C495,-138.05 495,-159 495,-159 495,-159 393.62,-159 393.62,-159"/>
<polygon fill="black" stroke="black" points="393.62,-155.5 383.62,-159 393.62,-162.5 393.62,-155.5"/>
</g>
</g>
</svg>
